#
#
#

mtllib cylinder.mtl


#
# 
#
g 


#
# _lambert1
#
usemtl _lambert1

v 0.136913 -0.499216 -0.079047
v 0.079047 -0.499216 -0.136913
v 0.000000 -0.499216 -0.158093
v -0.079047 -0.499216 -0.136913
v -0.136913 -0.499216 -0.079047
v -0.158093 -0.499216 0.000000
v -0.136913 -0.499216 0.079047
v -0.079047 -0.499216 0.136913
v 0.000000 -0.499216 0.158093
v 0.079047 -0.499216 0.136913
v 0.136913 -0.499216 0.079047
v 0.158093 -0.499216 0.000000
v 0.273826 -0.499216 -0.158093
v 0.158093 -0.499216 -0.273826
v 0.000000 -0.499216 -0.316187
v -0.158093 -0.499216 -0.273826
v -0.273826 -0.499216 -0.158093
v -0.316187 -0.499216 0.000000
v -0.273826 -0.499216 0.158093
v -0.158093 -0.499216 0.273826
v 0.000000 -0.499216 0.316187
v 0.158093 -0.499216 0.273826
v 0.273826 -0.499216 0.158093
v 0.316187 -0.499216 0.000000
v 0.273826 -0.249608 -0.158093
v 0.158093 -0.249608 -0.273826
v 0.000000 -0.249608 -0.316187
v -0.158093 -0.249608 -0.273826
v -0.273826 -0.249608 -0.158093
v -0.316187 -0.249608 0.000000
v -0.273826 -0.249608 0.158093
v -0.158093 -0.249608 0.273826
v 0.000000 -0.249608 0.316187
v 0.158093 -0.249608 0.273826
v 0.273826 -0.249608 0.158093
v 0.316187 -0.249608 0.000000
v 0.273826 0.000000 -0.158093
v 0.158093 0.000000 -0.273826
v 0.000000 0.000000 -0.316187
v -0.158093 0.000000 -0.273826
v -0.273826 0.000000 -0.158093
v -0.316187 0.000000 0.000000
v -0.273826 0.000000 0.158093
v -0.158093 0.000000 0.273826
v 0.000000 0.000000 0.316187
v 0.158093 0.000000 0.273826
v 0.273826 0.000000 0.158093
v 0.316187 0.000000 0.000000
v 0.273826 0.249608 -0.158093
v 0.158093 0.249608 -0.273826
v 0.000000 0.249608 -0.316187
v -0.158093 0.249608 -0.273826
v -0.273826 0.249608 -0.158093
v -0.316187 0.249608 0.000000
v -0.273826 0.249608 0.158093
v -0.158093 0.249608 0.273826
v 0.000000 0.249608 0.316187
v 0.158093 0.249608 0.273826
v 0.273826 0.249608 0.158093
v 0.316187 0.249608 0.000000
v 0.273826 0.499216 -0.158093
v 0.158093 0.499216 -0.273826
v 0.000000 0.499216 -0.316187
v -0.158093 0.499216 -0.273826
v -0.273826 0.499216 -0.158093
v -0.316187 0.499216 0.000000
v -0.273826 0.499216 0.158093
v -0.158093 0.499216 0.273826
v 0.000000 0.499216 0.316187
v 0.158093 0.499216 0.273826
v 0.273826 0.499216 0.158093
v 0.316187 0.499216 0.000000
v 0.136913 0.499216 -0.079047
v 0.079047 0.499216 -0.136913
v 0.000000 0.499216 -0.158093
v -0.079047 0.499216 -0.136913
v -0.136913 0.499216 -0.079047
v -0.158093 0.499216 0.000000
v -0.136913 0.499216 0.079047
v -0.079047 0.499216 0.136913
v 0.000000 0.499216 0.158093
v 0.079047 0.499216 0.136913
v 0.136913 0.499216 0.079047
v 0.158093 0.499216 0.000000
v 0.000000 -0.499216 0.000000
v 0.000000 0.499216 0.000000
vn 0.000000 -1.000000 0.000000
vn 0.000000 -1.000000 0.000000
vn 0.000000 -1.000000 0.000000
vn 0.000000 -1.000000 -0.000000
vn 0.000000 -1.000000 -0.000000
vn 0.707107 0.000000 -0.707107
vn 0.258819 0.000000 -0.965926
vn -0.258819 0.000000 -0.965926
vn -0.707107 0.000000 -0.707107
vn -0.965926 0.000000 -0.258819
vn -0.965926 0.000000 0.258819
vn -0.707107 0.000000 0.707107
vn -0.258819 0.000000 0.965926
vn 0.258819 0.000000 0.965926
vn 0.707107 0.000000 0.707107
vn 0.965926 0.000000 0.258819
vn 0.965926 0.000000 -0.258819
vn 0.000000 1.000000 -0.000000
vn 0.000000 1.000000 0.000000
vn 0.000000 1.000000 -0.000000
vn 0.000000 1.000000 0.000000
vn 0.000000 1.000000 0.000000
vt 0.567658 0.117188
vt 0.539063 0.088592
vt 0.578125 0.020934
vt 0.635316 0.078125
vt 0.500000 0.078125
vt 0.500000 0.000000
vt 0.460938 0.088592
vt 0.421875 0.020934
vt 0.432342 0.117188
vt 0.364684 0.078125
vt 0.421875 0.156250
vt 0.343750 0.156250
vt 0.432342 0.195313
vt 0.364684 0.234375
vt 0.460938 0.223908
vt 0.421875 0.291566
vt 0.500000 0.234375
vt 0.500000 0.312500
vt 0.539063 0.223908
vt 0.578125 0.291566
vt 0.567658 0.195313
vt 0.635316 0.234375
vt 0.578125 0.156250
vt 0.656250 0.156250
vt 0.375000 0.312500
vt 0.395833 0.312500
vt 0.395833 0.406485
vt 0.375000 0.406485
vt 0.416667 0.312500
vt 0.416667 0.406485
vt 0.437500 0.312500
vt 0.437500 0.406485
vt 0.458333 0.312500
vt 0.458333 0.406485
vt 0.479167 0.312500
vt 0.479167 0.406485
vt 0.500000 0.312500
vt 0.500000 0.406485
vt 0.520833 0.312500
vt 0.520833 0.406485
vt 0.541667 0.312500
vt 0.541667 0.406485
vt 0.562500 0.312500
vt 0.562500 0.406485
vt 0.583333 0.312500
vt 0.583333 0.406485
vt 0.604167 0.312500
vt 0.604167 0.406485
vt 0.625000 0.312500
vt 0.625000 0.406485
vt 0.395833 0.500470
vt 0.375000 0.500470
vt 0.416667 0.500470
vt 0.437500 0.500470
vt 0.458333 0.500470
vt 0.479167 0.500470
vt 0.500000 0.500470
vt 0.520833 0.500470
vt 0.541667 0.500470
vt 0.562500 0.500470
vt 0.583333 0.500470
vt 0.604167 0.500470
vt 0.625000 0.500470
vt 0.395833 0.594455
vt 0.375000 0.594455
vt 0.416667 0.594455
vt 0.437500 0.594455
vt 0.458333 0.594455
vt 0.479167 0.594455
vt 0.500000 0.594455
vt 0.520833 0.594455
vt 0.541667 0.594455
vt 0.562500 0.594455
vt 0.583333 0.594455
vt 0.604167 0.594455
vt 0.625000 0.594455
vt 0.395833 0.688440
vt 0.375000 0.688440
vt 0.416667 0.688440
vt 0.437500 0.688440
vt 0.458333 0.688440
vt 0.479167 0.688440
vt 0.500000 0.688440
vt 0.520833 0.688440
vt 0.541667 0.688440
vt 0.562500 0.688440
vt 0.583333 0.688440
vt 0.604167 0.688440
vt 0.625000 0.688440
vt 0.635316 0.921875
vt 0.578125 0.979066
vt 0.539063 0.911408
vt 0.567658 0.882813
vt 0.500000 1.000000
vt 0.500000 0.921875
vt 0.421875 0.979066
vt 0.460938 0.911408
vt 0.364684 0.921875
vt 0.432342 0.882813
vt 0.343750 0.843750
vt 0.421875 0.843750
vt 0.364684 0.765625
vt 0.432342 0.804688
vt 0.421875 0.708434
vt 0.460938 0.776092
vt 0.500000 0.687500
vt 0.500000 0.765625
vt 0.578125 0.708434
vt 0.539063 0.776092
vt 0.635316 0.765625
vt 0.567658 0.804688
vt 0.656250 0.843750
vt 0.578125 0.843750
vt 0.500000 0.150000
vt 0.500000 0.837500
f 1/1/1 2/2/1 14/3/1 13/4/1
f 2/2/1 3/5/1 15/6/1 14/3/1
f 3/5/1 4/7/1 16/8/1 15/6/1
f 4/7/1 5/9/2 17/10/3 16/8/1
f 5/9/2 6/11/2 18/12/3 17/10/3
f 6/11/2 7/13/1 19/14/1 18/12/3
f 7/13/1 8/15/1 20/16/1 19/14/1
f 8/15/1 9/17/1 21/18/1 20/16/1
f 9/17/1 10/19/1 22/20/1 21/18/1
f 10/19/1 11/21/4 23/22/5 22/20/1
f 11/21/4 12/23/4 24/24/5 23/22/5
f 12/23/4 1/1/1 13/4/1 24/24/5
f 13/25/6 14/26/6 26/27/6 25/28/6
f 14/26/7 15/29/7 27/30/7 26/27/7
f 15/29/8 16/31/8 28/32/8 27/30/8
f 16/31/9 17/33/9 29/34/9 28/32/9
f 17/33/10 18/35/10 30/36/10 29/34/10
f 18/35/11 19/37/11 31/38/11 30/36/11
f 19/37/12 20/39/12 32/40/12 31/38/12
f 20/39/13 21/41/13 33/42/13 32/40/13
f 21/41/14 22/43/14 34/44/14 33/42/14
f 22/43/15 23/45/15 35/46/15 34/44/15
f 23/45/16 24/47/16 36/48/16 35/46/16
f 24/47/17 13/49/17 25/50/17 36/48/17
f 25/28/6 26/27/6 38/51/6 37/52/6
f 26/27/7 27/30/7 39/53/7 38/51/7
f 27/30/8 28/32/8 40/54/8 39/53/8
f 28/32/9 29/34/9 41/55/9 40/54/9
f 29/34/10 30/36/10 42/56/10 41/55/10
f 30/36/11 31/38/11 43/57/11 42/56/11
f 31/38/12 32/40/12 44/58/12 43/57/12
f 32/40/13 33/42/13 45/59/13 44/58/13
f 33/42/14 34/44/14 46/60/14 45/59/14
f 34/44/15 35/46/15 47/61/15 46/60/15
f 35/46/16 36/48/16 48/62/16 47/61/16
f 36/48/17 25/50/17 37/63/17 48/62/17
f 37/52/6 38/51/6 50/64/6 49/65/6
f 38/51/7 39/53/7 51/66/7 50/64/7
f 39/53/8 40/54/8 52/67/8 51/66/8
f 40/54/9 41/55/9 53/68/9 52/67/9
f 41/55/10 42/56/10 54/69/10 53/68/10
f 42/56/11 43/57/11 55/70/11 54/69/11
f 43/57/12 44/58/12 56/71/12 55/70/12
f 44/58/13 45/59/13 57/72/13 56/71/13
f 45/59/14 46/60/14 58/73/14 57/72/14
f 46/60/15 47/61/15 59/74/15 58/73/15
f 47/61/16 48/62/16 60/75/16 59/74/16
f 48/62/17 37/63/17 49/76/17 60/75/17
f 49/65/6 50/64/6 62/77/6 61/78/6
f 50/64/7 51/66/7 63/79/7 62/77/7
f 51/66/8 52/67/8 64/80/8 63/79/8
f 52/67/9 53/68/9 65/81/9 64/80/9
f 53/68/10 54/69/10 66/82/10 65/81/10
f 54/69/11 55/70/11 67/83/11 66/82/11
f 55/70/12 56/71/12 68/84/12 67/83/12
f 56/71/13 57/72/13 69/85/13 68/84/13
f 57/72/14 58/73/14 70/86/14 69/85/14
f 58/73/15 59/74/15 71/87/15 70/86/15
f 59/74/16 60/75/16 72/88/16 71/87/16
f 60/75/17 49/76/17 61/89/17 72/88/17
f 61/90/18 62/91/19 74/92/19 73/93/20
f 62/91/19 63/94/19 75/95/19 74/92/19
f 63/94/19 64/96/19 76/97/19 75/95/19
f 64/96/19 65/98/19 77/99/19 76/97/19
f 65/98/19 66/100/21 78/101/22 77/99/19
f 66/100/21 67/102/21 79/103/22 78/101/22
f 67/102/21 68/104/19 80/105/19 79/103/22
f 68/104/19 69/106/19 81/107/19 80/105/19
f 69/106/19 70/108/19 82/109/19 81/107/19
f 70/108/19 71/110/19 83/111/19 82/109/19
f 71/110/19 72/112/18 84/113/20 83/111/19
f 72/112/18 61/90/18 73/93/20 84/113/20
f 2/2/1 1/1/1 85/114/1
f 3/5/1 2/2/1 85/114/1
f 4/7/1 3/5/1 85/114/1
f 5/9/2 4/7/1 85/114/1
f 6/11/2 5/9/2 85/114/1
f 7/13/1 6/11/2 85/114/1
f 8/15/1 7/13/1 85/114/1
f 9/17/1 8/15/1 85/114/1
f 10/19/1 9/17/1 85/114/1
f 11/21/4 10/19/1 85/114/1
f 12/23/4 11/21/4 85/114/1
f 1/1/1 12/23/4 85/114/1
f 73/93/20 74/92/19 86/115/19
f 74/92/19 75/95/19 86/115/19
f 75/95/19 76/97/19 86/115/19
f 76/97/19 77/99/19 86/115/19
f 77/99/19 78/101/22 86/115/19
f 78/101/22 79/103/22 86/115/19
f 79/103/22 80/105/19 86/115/19
f 80/105/19 81/107/19 86/115/19
f 81/107/19 82/109/19 86/115/19
f 82/109/19 83/111/19 86/115/19
f 83/111/19 84/113/20 86/115/19
f 84/113/20 73/93/20 86/115/19
